<?xml version="1.0" standalone="no"?>
<!DOCTYPE svg PUBLIC "-//W3C//DTD SVG 20010904//EN"
 "http://www.w3.org/TR/2001/REC-SVG-20010904/DTD/svg10.dtd">
<svg version="1.0" xmlns="http://www.w3.org/2000/svg"
 width="700.000000pt" height="700.000000pt" viewBox="0 0 700.000000 700.000000"
 preserveAspectRatio="xMidYMid meet">
<metadata>
Created by potrace 1.14, written by Peter Selinger 2001-2017
</metadata>
<g transform="translate(0.000000,700.000000) scale(0.100000,-0.100000)"
fill="#000000" stroke="none">
<path d="M755 6610 c-160 -21 -296 -138 -351 -300 -18 -52 -19 -98 -19 -750 0
-652 1 -698 19 -750 20 -60 65 -137 96 -165 19 -18 19 -18 -12 -53 -49 -57
-89 -153 -100 -241 -5 -46 -8 -353 -6 -723 4 -629 4 -644 25 -700 22 -58 68
-133 97 -157 14 -12 13 -17 -15 -49 -47 -53 -90 -152 -100 -230 -12 -92 -11
-1259 1 -1352 25 -189 163 -335 350 -370 36 -7 520 -9 1380 -8 l1325 3 -130
34 c-71 19 -145 38 -164 43 l-34 10 7 74 7 74 -1183 2 -1183 3 -42 22 c-48 26
-76 62 -92 118 -15 54 -15 1294 0 1348 12 43 59 101 100 123 24 12 214 14
1337 14 l1309 0 17 106 c18 121 21 127 44 114 9 -6 440 -106 956 -224 l940
-214 384 220 c262 150 388 216 395 209 9 -9 -2 -111 -20 -188 -5 -22 -3 -23
66 -23 40 0 86 -6 104 -14 43 -17 93 -76 106 -123 15 -54 15 -1294 0 -1348
-16 -56 -44 -92 -92 -118 -39 -20 -58 -22 -253 -25 l-212 -4 -13 -71 -14 -72
-69 -45 -70 -45 279 -3 c160 -1 302 2 334 8 188 35 326 181 351 370 13 101 13
1265 0 1355 -12 80 -53 175 -99 227 -28 32 -29 37 -15 49 29 24 75 99 97 157
21 56 21 71 25 702 2 422 0 673 -7 725 -12 89 -51 182 -99 237 -31 35 -31 35
-12 53 31 28 76 105 96 165 18 52 19 98 19 750 0 652 -1 698 -19 750 -56 166
-190 278 -360 300 -87 11 -5394 11 -5481 0z m5532 -267 c23 -14 52 -45 65 -67
l23 -41 0 -675 0 -675 -25 -45 c-17 -29 -41 -53 -70 -70 l-45 -25 -2735 0
-2735 0 -42 22 c-50 27 -78 64 -93 124 -7 30 -10 245 -8 694 l3 650 25 43 c14
25 42 54 65 68 l40 24 2745 0 2746 0 41 -27z m-18 -1857 c41 -22 88 -80 100
-123 15 -54 15 -1294 0 -1348 -28 -100 -87 -136 -234 -143 -100 -4 -101 -4
-950 182 l-850 187 -441 -188 -441 -188 -1344 5 -1344 5 -42 22 c-50 27 -78
64 -93 124 -7 30 -10 245 -8 694 l3 650 23 41 c13 22 42 53 65 67 l41 27 2743
0 c2377 0 2748 -2 2772 -14z m-1447 -1557 c82 -22 168 -69 168 -93 0 -30 -32
-41 -119 -40 -130 2 -275 48 -325 103 -23 25 -10 47 32 55 48 8 165 -4 244
-25z"/>
<path d="M5260 6083 c-8 -3 -18 -11 -22 -17 -4 -6 -8 -236 -8 -511 0 -377 3
-504 12 -513 17 -17 929 -17 946 0 15 15 17 1004 2 1028 -8 13 -72 15 -462 17
-249 1 -460 -1 -468 -4z m870 -528 l0 -455 -415 0 -415 0 0 455 0 455 415 0
415 0 0 -455z"/>
<path d="M880 5550 l0 -290 1900 0 1900 0 0 290 0 290 -1900 0 -1900 0 0 -290z"/>
<path d="M862 4208 c-9 -9 -12 -139 -12 -524 0 -458 2 -513 16 -518 9 -3 219
-6 468 -6 338 0 455 3 464 12 9 9 12 138 12 520 0 491 -1 508 -19 518 -30 15
-913 14 -929 -2z m878 -523 l0 -455 -410 0 -410 0 0 455 0 455 410 0 410 0 0
-455z"/>
<path d="M4340 3725 l0 -215 875 0 875 0 0 215 0 215 -875 0 -875 0 0 -215z"/>
<path d="M2952 3713 l3 -218 583 -3 582 -2 0 220 0 220 -585 0 -585 0 2 -217z"/>
<path d="M3426 2798 c-2 -7 -68 -443 -145 -968 -94 -638 -137 -956 -130 -961
17 -10 1798 -483 1803 -478 8 8 369 1969 363 1975 -4 4 -1664 397 -1856 439
-22 5 -32 3 -35 -7z m1460 -597 c79 -36 125 -132 103 -213 -31 -119 -148 -178
-254 -129 -65 29 -115 104 -115 171 0 34 22 91 47 121 55 64 143 85 219 50z
m-592 -401 c87 -60 107 -184 44 -273 -47 -66 -163 -88 -240 -45 -78 44 -115
167 -75 245 19 35 64 79 97 92 43 18 134 8 174 -19z m-587 -377 c69 -32 112
-125 94 -203 -23 -105 -118 -166 -226 -146 -51 10 -120 79 -135 135 -33 123
72 250 194 235 22 -3 55 -12 73 -21z"/>
<path d="M5735 2590 c-187 -115 -344 -212 -350 -217 -11 -10 -390 -1971 -382
-1979 2 -3 175 103 383 235 l379 240 164 953 c90 524 166 959 169 966 2 6 -2
12 -9 11 -8 -1 -167 -95 -354 -209z m55 -262 c39 -64 17 -188 -45 -253 -65
-69 -125 -31 -125 79 0 146 115 263 170 174z m-334 -1203 c42 -64 20 -192 -46
-257 -44 -45 -68 -47 -101 -12 -49 52 -22 205 47 269 35 33 78 33 100 0z"/>
<path d="M6040 2338 c0 -7 -3 -23 -6 -35 -6 -22 -3 -23 45 -23 l51 0 0 -455 0
-455 -129 0 -129 0 -4 -35 -4 -35 156 0 c108 0 160 4 168 12 17 17 17 1009 0
1026 -17 17 -148 16 -148 0z"/>
<path d="M2800 1820 l0 -220 213 2 212 3 27 180 c14 99 29 197 32 218 l6 37
-245 0 -245 0 0 -220z"/>
<path d="M800 1810 l0 -220 925 0 925 0 0 220 0 220 -925 0 -925 0 0 -220z"/>
</g>
</svg>
